<svg xmlns="http://www.w3.org/2000/svg" width="154" height="38" fill="none"><g clip-path="url(#a)"><path fill="#141414" d="M106.531 27.3723c1.556.0203 3.1-.2801 4.534-.8826 1.413-.6312 2.769-1.3816 4.053-2.2432l6.345 8.3109c-1.004.9305-2.142 1.7072-3.376 2.3045a20.80562 20.80562 0 0 1-3.942 1.4097c-1.433.3583-2.891.6083-4.361.7478-1.504.1348-3.031.2084-4.62.2084a47.97088 47.97088 0 0 1-4.805-.2452c-1.5772-.1594-3.068-.3677-4.4724-.6497a35.85606 35.85606 0 0 1-3.8808-.9684 20.38044 20.38044 0 0 1-3.0308-1.2258l11.445-22.9226h-8.5374V.5884h26.2044l-12.505 26.7839h.949Zm34.792-12.491a6.02502 6.02502 0 0 0-1.479-2.0839c-.646-.6058-1.403-1.0841-2.23-1.4096-.852-.3557-1.768-.5389-2.692-.5389-.924 0-1.839.1832-2.691.5389-1.641.6436-2.966 1.8962-3.696 3.4935-.374.7986-.567 1.6688-.567 2.5497 0 .8808.193 1.751.567 2.5497.73 1.5973 2.055 2.8498 3.696 3.4935.852.3557 1.767.5389 2.691.5389.924 0 1.84-.1832 2.692-.5389.827-.3256 1.584-.8039 2.23-1.4097a6.02371 6.02371 0 0 0 1.479-2.0838c.357-.8031.542-1.6715.542-2.5497 0-.8782-.185-1.7467-.542-2.5497Zm10.472 9.4755c-.944 2.0927-2.282 3.9861-3.943 5.5774-1.697 1.6155-3.693 2.8892-5.876 3.751-4.622 1.8009-9.757 1.8009-14.378 0-4.354-1.7287-7.861-5.0738-9.782-9.3284-.958-2.15-1.453-4.4758-1.453-6.8278 0-2.3519.495-4.6778 1.453-6.8277.942-2.09018 2.281-3.97981 3.943-5.56516 1.701-1.5935 3.68-2.86466 5.839-3.75096 4.613-1.8469 9.765-1.8469 14.378 0 2.169.88144 4.158 2.15298 5.864 3.75096 1.666 1.58209 3.005 3.4725 3.942 5.56516.959 2.1499 1.454 4.4758 1.454 6.8277 0 2.352-.495 4.6778-1.454 6.8278h.013ZM80.9794 11.2161v23.2904H69.8298V11.2161h-6.8746V.5884h24.8371v10.6277h-6.8129Zm-30.8863.1717a2.57478 2.57478 0 0 0-.868-.5821 2.58593 2.58593 0 0 0-1.0293-.1902H46.471v5.1974h1.7248c.3525.0074.7029-.0574 1.0293-.1901.3263-.1329.6217-.331.868-.5821.2489-.238.447-.5235.5823-.8395.1352-.3159.205-.6558.205-.9992 0-.3435-.0698-.6834-.205-.9994-.1353-.3159-.3334-.6014-.5823-.8394v.0246Zm7.7123 11.2038 7.7616 11.8536H53.592c-1.7331-2.4516-3.08-4.2903-4.041-5.5162a26.99632 26.99632 0 0 0-2.0697-2.4516c-.4312-.4167-.6899-.5516-.7639-.4167a.83128.83128 0 0 0-.1232.4413v7.9432h-11.088V.5884h13.5767c1.6409.0019 3.261.36614 4.7432 1.06645 1.4871.67075 2.8364 1.61008 3.9793 2.77033 1.227 1.1799 2.2031 2.59302 2.8706 4.15548.6229 1.50844.9371 3.12534.924 4.75614-.0031 1.6815-.3336 3.3467-.9733 4.9032-.649 1.6183-1.6071 3.096-2.8213 4.3516Zm-40.7299-8.8503-1.8973 7.2568h3.696l-1.7987-7.2568Zm5.7535 20.7039-1.0719-3.8858H12.32l-1.0595 3.8858H0L10.9648.5884h12.1598l10.9648 33.8568H22.829Z"/></g><defs><clipPath id="a"><path fill="#fff" d="M0 0h154v38H0z"/></clipPath></defs></svg>