<svg xmlns="http://www.w3.org/2000/svg" width="140" height="38" fill="none"><g clip-path="url(#a)"><path fill="#141414" d="M22.3941 31.0904a1.71946 1.71946 0 0 1-.5901.1152l-2.233.0691h-1.9207c-1.5763 1.7497-3.4579 3.201-5.5537 4.2836-1.4938.738-3.14608 1.1017-4.81322 1.0594a9.87727 9.87727 0 0 1-3.00827-.5527c-.88105-.3012-1.69459-.7706-2.39504-1.3818C1.23633 34.1319.7261 33.4431.38751 32.668a4.88386 4.88386 0 0 1-.3471-2.5333c.07647-1.2843.53119-2.5178 1.30743-3.5467.61007-.7579 1.40744-1.3452 2.31405-1.7042.8234-.3062 1.70349-.4318 2.58017-.3685a8.40191 8.40191 0 0 1 2.02479.3685c.41146.1712.75638.47.98347.8521.18332.3003.26069.6528.21984 1.0018a1.14859 1.14859 0 0 1-.16729.423 1.1543 1.1543 0 0 1-.31866.3255 1.07982 1.07982 0 0 1-.51488.1306 1.0798 1.0798 0 0 1-.51488-.1306c-.60101-.2808-1.2853-.3301-1.92066-.1382-.54412.182-1.02546.5133-1.38843.9558-.3556.4569-.59031.9954-.68264 1.566a3.1869 3.1869 0 0 0 .12727 1.7158c.22236.5748.62905 1.0605 1.15703 1.3818.69938.4081 1.50473.6005 2.31405.5527 1.82823-.1228 3.55743-.8714 4.89423-2.1187-.6711 0-1.0876-.2073-1.2496-.5067a1.01005 1.01005 0 0 1-.1331-.5009c0-.1756.0459-.3482.1331-.5009.2384-.4125.5666-.7666.9603-1.0364.4303-.3101.9394-.4936 1.4694-.5297h2.0711a61.58207 61.58207 0 0 0 4.8364-6.1951c1.6661-2.4182 3.2859-4.8594 4.9173-7.3582 1.6314-2.4988 3.124-4.96305 4.6281-7.38123 1.5041-2.41819 3.0199-4.60606 4.443-6.49455.3252-.4383.8045-.73847 1.3421-.8406a2.23149 2.23149 0 0 1 1.3885.12666c.1967.09297.3715.22613.513.3908.1416.16467.2467.35717.3085.56496.0644.2587.0697.52846.0157.7895-.054.26104-.1662.50671-.3281.71898-1.2149 1.87697-2.4067 3.93819-3.5984 6.19515-1.1917 2.25693-2.314 4.53693-3.2975 6.82853-.9835 2.2915-1.9438 4.5139-2.6843 6.6442a46.3476 46.3476 0 0 0-1.724 5.6655 14.10338 14.10338 0 0 0-.4628 3.9727c.081 1.0133.4513 1.5085 1.157 1.5085.3165-.0117.6291-.0738.9257-.1843a8.9735 8.9735 0 0 0 1.157-.4951c.4022-.2233.7887-.4733 1.157-.7485a8.0824 8.0824 0 0 0 1.0645-.8982l1.4925-1.5085c.4345-.4655.844-.9538 1.2265-1.4624.0913-.1484.2185-.2715.3702-.3581.1517-.0865.3228-.1336.4976-.1371.3596-.0272.7199.0445 1.0413.2073.3015.1369.5466.3727.6942.6679a.80309.80309 0 0 1 .059.4741.80474.80474 0 0 1-.221.4241l-1.4347 1.7157c-.6017.7255-1.3653 1.5431-2.3141 2.4643-.6016.5642-1.157 1.0479-1.6429 1.4279-.4619.3706-.9622.691-1.4926.9557a6.24112 6.24112 0 0 1-1.5388.5297 9.58198 9.58198 0 0 1-1.8166.1612c-.6224.0526-1.2478-.0628-1.8098-.3345-.5621-.2715-1.04-.6891-1.3836-1.2085-.6678-1.2453-.9458-2.6609-.7983-4.0649Zm.3702-2.9133a34.91757 34.91757 0 0 1 2.3141-6.7709c-.8446 1.3358-1.6777 2.5794-2.476 3.7079-.7984 1.1285-1.562 2.1648-2.3141 3.1206.4975 0 .9603-.0576 1.3884-.0576h1.0876Zm14.7405-7.1394c.0884-.1678.2171-.3112.3745-.4176.1574-.1065.3387-.1726.528-.1927a3.15011 3.15011 0 0 1 1.3537 0c.4121.0868.7899.2909 1.0876.5873a.88482.88482 0 0 1 .26.5026.88285.88285 0 0 1-.098.5568l-.3124.6333.2083-.1612a9.4828 9.4828 0 0 1 2.557-1.6927 3.63785 3.63785 0 0 1 1.8281-.3224c.49.061.9438.2889 1.2843.6448.3599.3523.6537.7656.8678 1.2206a3.0719 3.0719 0 0 1 0 2.3606 19.6401 19.6401 0 0 1-1.3537 2.9364c-.3934.783-.7984 1.5085-1.2265 2.1994-.4281.6909-.8446 1.4048-1.2727 2.1418a1.56244 1.56244 0 0 0-.2893.7715c0 .1267.1042.1612.2662.1267.1938-.0542.3803-.1315.5553-.2303.2011-.1222.3943-.2568.5785-.4031a21.04561 21.04561 0 0 0 2.3141-2.0612 23.04968 23.04968 0 0 0 1.8397-2.0727c.0926-.1575.2241-.2888.382-.3815.1581-.0928.3372-.1437.5204-.1482.3485-.0275.6977.0445 1.0067.2073.2902.1447.5256.3789.671.6679a.85885.85885 0 0 1 .0755.4637c-.0183.1585-.0806.3089-.1796.4344-.1851.2073-.4165.5182-.7174.9212-.3008.4031-.6479.8407-1.0413 1.3013-.3934.4606-.8215.9327-1.3074 1.4278-.486.4952-.9604.9558-1.4579 1.3819a9.74334 9.74334 0 0 1-2.5801 1.7387c-.6339.2952-1.3251.4484-2.0248.4491-.5286.0056-1.043-.1692-1.4579-.4951-.3869-.3114-.6992-.7047-.914-1.1515-.3352-.7236-.3808-1.5472-.1273-2.3031a16.69472 16.69472 0 0 1 1.3074-2.9939c.1389-.2764.3124-.6103.5323-1.0018.2198-.3915.4281-.7831.6595-1.1515.2314-.3685.4396-.7946.6363-1.1515.1653-.3186.3507-.6262.5554-.9213.2198-.3915.3008-.6448.2661-.7715-.0347-.1266-.1504-.1612-.3355-.1266a2.91038 2.91038 0 0 0-.6711.2303c-.243.1266-.4744.2648-.6942.403-.567.3915-1.157.8176-1.7471 1.2897-.5795.4552-1.1319.9435-1.6546 1.4624-.3586.8406-.7173 1.6927-1.0876 2.5449l-1.0413 2.3836c-.324.737-.5901 1.3703-.8215 1.9-.2314.5297-.4049.8982-.5091 1.1515a1.71503 1.71503 0 0 1-.4702.6035c-.2003.1635-.435.28-.6868.3408a2.5114 2.5114 0 0 1-1.5157 0c-.4664-.1468-.8567-.4691-1.0876-.8982a1.74379 1.74379 0 0 1-.1613-.848c.0182-.2917.1095-.5741.2654-.8217.3124-.7025.7521-1.6352 1.2959-2.7752.5438-1.14 1.157-2.303 1.7124-3.6042l1.7008-3.6849c.486-1.3472.9604-2.3606 1.3537-3.2127v.0115Zm20.2596-1.3242-4.4199 7.7151c-.3818.7025-.7636 1.3818-1.157 2.0152a15.1986 15.1986 0 0 0-.9141 1.7503 8.70655 8.70655 0 0 0-.4743 1.3473c-.0926.3684-.0463.6218.1388.76.1005.0935.2261.1562.3615.1807a.7201.7201 0 0 0 .4021-.0426 3.55726 3.55726 0 0 0 1.0645-.5066c.3702-.2418.7521-.5297 1.157-.8406.405-.3109.7405-.6334 1.0645-.9558l1.4926-1.5085c.4344-.4655.8438-.9538 1.2264-1.4624.0913-.1484.2186-.2715.3702-.3581.1517-.0865.3229-.1336.4976-.1371.3596-.0272.7199.0445 1.0413.2073.3015.1369.5466.3727.6942.6679a.80309.80309 0 0 1 .059.4741.80474.80474 0 0 1-.221.4241c-.3587.4606-.833 1.0363-1.4347 1.7503-.6016.7139-1.3653 1.5085-2.314 2.4297-.6017.5642-1.1571 1.0479-1.643 1.4279-.4619.3706-.9622.691-1.4926.9557a6.2397 6.2397 0 0 1-1.5388.5297 9.21538 9.21538 0 0 1-1.7587.1612c-1.8165 0-2.8694-.7369-3.1702-2.1994-.3009-1.4624.2776-3.4545 1.7355-5.8497.1735-.3224.4397-.7945.7983-1.4278.3587-.6334.7637-1.3588 1.2496-2.1764l1.5157-2.5909c.5323-.9212 1.0413-1.8194 1.5389-2.7061a7.60716 7.60716 0 0 1-.9025.0576h-.9603c-.7405 0-1.2265-.1497-1.4347-.4491a.999.999 0 0 1-.1743-.5101.99875.99875 0 0 1 .1164-.5263c.2232-.4295.554-.7944.9603-1.0593.4549-.313.987-.4961 1.5389-.5297h2.6958l1.1571-1.9116c.2648-.478.7038-.8365 1.2264-1.0018a2.32513 2.32513 0 0 1 1.3884 0c.3883.1128.7191.3679.9257.714.0911.181.1328.3828.1206.585a1.14768 1.14768 0 0 1-.1901.5665l-.5322.8982h1.481c.3852.0294.772.0294 1.157 0 .5323 0 .8447.1612.9604.4606a1.26173 1.26173 0 0 1-.1157 1.0018c-.2023.4091-.4903.7703-.8447 1.0594-.3512.3196-.8083.5-1.2843.5066l-3.1586.1037Zm16.8231 8.4636c.1041-.1493.2422-.2721.4031-.3582.1608-.086.3399-.133.5225-.1369.3595-.0249.7191.0466 1.0413.2072.2966.1441.5396.378.6942.6679a.8133.8133 0 0 1 .0568.4736.81718.81718 0 0 1-.2187.4246c-.1852.2073-.4166.5182-.7174.9212s-.6595.8406-1.0645 1.3012l-1.2495 1.4164c-.4521.4867-.9311.948-1.4347 1.3818-.755.71-1.618 1.2968-2.5571 1.7388-.6128.294-1.2867.4399-1.9669.4261-.5232-.0174-1.0266-.2033-1.4347-.5297a4.82156 4.82156 0 0 1-1.0066-1.1516l-1.8397 1.1516c-.9154.4477-1.9324.6501-2.9504.5872-.8425.0187-1.673-.201-2.3951-.6333-.6794-.4278-1.2027-1.0616-1.4925-1.8079a5.7328 5.7328 0 0 1-.324-2.7751c.1616-1.2425.5708-2.4404 1.2033-3.5237.6346-1.2163 1.4499-2.3304 2.4182-3.3048a17.22364 17.22364 0 0 1 2.8463-2.3031c.8718-.5602 1.813-1.0052 2.8-1.3242a7.90232 7.90232 0 0 1 2.314-.4261c.3934-.0042.7847.0581 1.157.1843.3225.1194.6326.2698.9257.4491.291.178.559.3907.7983.6333.2282-.4274.6075-.7557 1.0645-.9212a2.98649 2.98649 0 0 1 1.4694-.2188c.392.0332.7563.2144 1.0182.5067.2198.2879.1967.6679-.081 1.1515l-1.0645 2.0958c-.4281.829-.8677 1.6812-1.3305 2.5448l-1.3075 2.4297c-.2998.5612-.628 1.1071-.9835 1.6351-.17.2381-.2555.5258-.2429.8176 0 .1612.2082.2303.4512.2188.3038-.0371.5959-.1392.8562-.2994.3549-.1971.6785-.4455.9603-.737.6017-.6333 1.0876-1.1515 1.4579-1.5084.4408-.4373.8435-.9111 1.2033-1.4164v.0115Zm-7.8215 1.474c.5047-.6226.9393-1.2984 1.2959-2.0152.3058-.6103.5574-1.2461.752-1.9a4.50214 4.50214 0 0 0 .1852-1.5545 1.2718 1.2718 0 0 0-.1328-.5437 1.27889 1.27889 0 0 0-.3532-.4351 1.35713 1.35713 0 0 0-.524-.2074 1.35961 1.35961 0 0 0-.5636.0231c-.511.1164-.997.3231-1.4347.6103-.5726.3692-1.1074.7934-1.5967 1.2667a17.96778 17.96778 0 0 0-1.6198 1.8079 14.66345 14.66345 0 0 0-1.3306 2.0842 9.37563 9.37563 0 0 0-.7752 1.877 4.17367 4.17367 0 0 0-.162 1.543c.0128.1892.0647.3737.1523.5421.0875.1684.209.3171.3568.4367.1476.1086.3175.1834.4974.2193.18.0358.3657.0316.5439-.012a4.29576 4.29576 0 0 0 1.4579-.5758 9.13562 9.13562 0 0 0 1.6198-1.2782 14.61623 14.61623 0 0 0 1.6314-1.8884Zm7.8215-1.4855a28.87927 28.87927 0 0 0 2.314-3.04c.81-1.2206 1.562-2.303 2.2331-3.3624-.4499-.5759-.7838-1.2327-.9835-1.9346a8.25367 8.25367 0 0 1-.3702-2.303 6.87906 6.87906 0 0 1 .2892-2.1994c.206-.6576.6099-1.2365 1.1571-1.6582.6243-.5416 1.4074-.8688 2.233-.9327.6478-.0294 1.2858.166 1.805.5527.5086.4419.8682 1.0289 1.0297 1.6812.2332.7056.281 1.4588.1389 2.1879a6.06479 6.06479 0 0 1-.5323 1.5891c-.2892.6103-.6248 1.2552-1.0066 1.9691.4726.1041.9622.1041 1.4347 0 .475-.1146.9731-.0905 1.4348.0691.3584.1328.6715.3644.9024.6679.2116.2606.3262.5861.324.9212.0039.1527-.0227.3046-.0782.4469a1.1521 1.1521 0 0 1-.2458.3822c-.1388.1381-.4281.4606-.8446.9442-.4165.4836-.9141 1.094-1.4694 1.7733-.5554.6794-1.157 1.4279-1.6777 2.1994a25.83204 25.83204 0 0 0-1.4579 2.2225 10.43859 10.43859 0 0 0-.9024 1.8884c-.1967.5413-.1736.9097.0694 1.0825.2364.1759.5201.2777.8149.292.2948.0144.5872-.0592.8396-.2114a9.53243 9.53243 0 0 0 2.2331-1.3012 21.05917 21.05917 0 0 0 2.314-1.9576 21.30845 21.30845 0 0 0 1.805-1.9346c.1184-.1331.2622-.2414.4231-.3186.161-.077.3357-.1215.5141-.1304.3455-.0184.6903.0449 1.0066.1842.2887.136.5244.3625.6711.6448a.8143.8143 0 0 1 .0567.4737c-.029.16-.105.3078-.2187.4245a23.61647 23.61647 0 0 1-2.3141 2.614 19.2932 19.2932 0 0 1-3.2396 2.706c-1.1155.7611-2.3459 1.3403-3.6447 1.7158a4.48547 4.48547 0 0 1-1.7672.1954 4.48158 4.48158 0 0 1-1.7038-.5063c-.4295-.1914-.7992-.4946-1.0701-.8776-.2708-.3831-.4328-.8317-.4688-1.2988a6.53574 6.53574 0 0 1 .5323-3.2012 15.32252 15.32252 0 0 1 1.9669-3.4545 15.94258 15.94258 0 0 1 2.7653-2.971c.182-.1335.3354-.3019.4512-.4951 0-.0921-.3471-.2764-1.0876-.5642-.8909 1.3818-1.7471 2.6484-2.5801 3.8115-.8331 1.163-1.4 1.946-1.6777 2.303-.112.1595-.2585.2919-.4287.3875a1.31091 1.31091 0 0 1-.5548.1652 1.56788 1.56788 0 0 1-.9835-.2418c-.2771-.165-.4924-.4158-.6132-.7139a.84936.84936 0 0 1-.0464-.4664.85002.85002 0 0 1 .2084-.4203Zm6.8149-12.7588c-.1322-.0041-.2633.0253-.3807.0859a.77473.77473 0 0 0-.2904.2596c-.1711.272-.2779.5791-.3124.8981-.0584.3817-.0584.77 0 1.1516.0691.4288.214.8421.4281 1.2206.2083-.4261.405-.8522.5785-1.2782a6.438 6.438 0 0 0 .3818-1.1515 1.84233 1.84233 0 0 0 0-.8752.43663.43663 0 0 0-.1524-.22c-.0725-.0558-.1609-.0875-.2525-.0909Zm15.8975 4.2952-4.4198 7.7266c-.3934.7025-.7752 1.3818-1.1571 2.0152-.3345.5656-.6358 1.15-.9024 1.7503-.2.4334-.3587.8845-.4744 1.3473-.0926.3684 0 .6218.1272.76a.74405.74405 0 0 0 .3676.1802.74375.74375 0 0 0 .4076-.0421 3.55726 3.55726 0 0 0 1.0645-.5066c.3703-.2418.7521-.5297 1.157-.8406.405-.3109.7405-.6334 1.0645-.9558.6364-.6333 1.157-1.1515 1.481-1.5085.422-.4639.816-.9523 1.1802-1.4624a1.0711 1.0711 0 0 1 .3921-.3871c.1623-.093.3463-.1421.5335-.1426.3595-.0249.7191.0466 1.0413.2073.2966.144.5395.3779.6942.6679a.81306.81306 0 0 1 .0567.4736.81543.81543 0 0 1-.2187.4245c-.3586.4606-.833 1.0364-1.4347 1.7503-.6016.714-1.3653 1.5085-2.314 2.4297-.6017.5643-1.1571 1.0479-1.6546 1.4279a8.67173 8.67173 0 0 1-1.481.9558 6.32811 6.32811 0 0 1-1.5504.5297 9.13385 9.13385 0 0 1-1.7587.1612c-1.8049 0-2.8578-.737-3.1586-2.1994-.3009-1.4624.2777-3.4546 1.7239-5.8497.1852-.3224.4513-.7946.7984-1.4279l1.2496-2.1764c.4859-.806.9834-1.6696 1.5157-2.5909.5322-.9212 1.0529-1.8194 1.5504-2.706a7.60311 7.60311 0 0 1-.9025.0576h-.9603c-.7521 0-1.2265-.1497-1.4347-.4491a.97533.97533 0 0 1-.1492-.5182c0-.1832.0517-.3627.1492-.5182.2196-.4319.5512-.7977.9603-1.0594.4548-.313.9869-.4961 1.5388-.5297h2.6959l1.157-1.9115c.2616-.4505.676-.7934 1.1686-.9673.452-.1414.9365-.1414 1.3885 0 .3847.1197.7133.3731.9256.714.0895.182.1292.3843.115.5865a1.14847 1.14847 0 0 1-.196.565l-.5322.8982h1.4921c.386.0294.772.0294 1.157 0 .533 0 .845.1612.949.4606.053.1651.071.3393.054.5117-.018.1725-.072.3393-.158.4901-.206.4067-.493.7672-.845 1.0594-.365.3151-.835.4835-1.319.4721l-3.1351.1267Zm8.8401 8.4636c.091-.1484.218-.2715.37-.3581.151-.0865.323-.1336.497-.1371.36-.0272.72.0445 1.042.2073.301.1369.546.3727.694.6679.067.1484.088.3138.059.4741a.80545.80545 0 0 1-.221.4241c-.359.4606-.822 1.0363-1.412 1.7503-.724.8527-1.497 1.6639-2.314 2.4297-.601.5642-1.157 1.0479-1.643 1.4279-.462.3706-.962.691-1.492.9557-.488.2429-1.005.421-1.539.5297a9.21716 9.21716 0 0 1-1.7588.1612c-1.8165 0-2.8694-.7369-3.1702-2.1994-.3009-1.4624.2776-3.4545 1.7355-5.8497.3124-.5297.6479-1.1515 1.0066-1.7733.3587-.6218.7174-1.3012 1.0876-1.9345l1.0643-1.7964c.336-.5642.637-1.0479.88-1.4394.271-.4671.709-.8161 1.226-.9788.44-.1386.913-.1386 1.354 0 .385.1251.715.3769.937.714.093.1828.132.3885.112.5926-.021.2041-.1.3981-.228.5589-.382.6794-.833 1.4624-1.33 2.3606l-1.273 2.4757c-.382.7025-.764 1.3818-1.157 2.0152-.343.5631-.648 1.1478-.9142 1.7503a8.69651 8.69651 0 0 0-.4744 1.3473c-.0926.3684-.0463.6218.1388.76a.71902.71902 0 0 0 .3615.1807.7206.7206 0 0 0 .4023-.0426c.41-.1066.801-.2777 1.157-.5066.4-.2604.786-.541 1.157-.8406.382-.3225.74-.6334 1.064-.9558l1.435-1.5085c.407-.4675.789-.9556 1.146-1.4624Zm2.175-11.803c-.195.3321-.433.6378-.706.9097-.217.2223-.445.4336-.683.6333a4.6417 4.6417 0 0 1-1.446.5758c-.407.1082-.834.1278-1.25.0575-.15-.021-.292-.0811-.412-.1741a.85891.85891 0 0 1-.27-.3556c-.127-.2763 0-.6678.289-1.1515.144-.2805.302-.5534.474-.8176.22-.3339.405-.6448.591-.9327.127-.2021.296-.3751.496-.5081.199-.1329.424-.2226.661-.2634.462-.0845.938-.0569 1.388.0806.397.1271.734.393.949.7485.098.1877.143.3989.128.6101-.014.2113-.086.4145-.209.5875Zm-1.747 10.8012c.631-1.1291 1.409-2.1706 2.314-3.0976.859-.8469 1.824-1.5821 2.869-2.1879.917-.541 1.931-.9007 2.985-1.0594.938-.1403 1.896-.0494 2.789.2649.328.0966.623.2806.854.5323.23.2517.387.5615.453.8956.078.6937-.025 1.3958-.301 2.0381-.274.7469-.665 1.4462-1.157 2.0728-.432.5476-.917 1.0528-1.446 1.5085-.316.2851-.731.4378-1.157.426-.38-.0266-.743-.1671-1.041-.403-.267-.2129-.467-.4963-.579-.8176-.055-.1371-.065-.2883-.027-.4313.037-.1431.12-.2704.235-.3632l.903-.8982c.328-.3243.633-.6707.914-1.0364.199-.2462.342-.5332.416-.8406 0-.2303-.115-.3454-.474-.3454-.436.0221-.859.157-1.226.3915-.526.3218-1.008.7087-1.435 1.1515-.54.5175-1.039 1.0757-1.493 1.6697-.513.6498-.973 1.339-1.377 2.0612-.487.7565-.722 1.6474-.671 2.5448.03.3348.128.66.289.9552.161.2953.382.5542.649.7606.607.377 1.327.5318 2.036.4376a6.73707 6.73707 0 0 0 2.974-1.0824c.459-.2756.903-.5755 1.33-.8982.463-.357.903-.7255 1.331-1.1515.428-.4261.821-.7716 1.157-1.1516.321-.3264.623-.6726.902-1.0363.092-.1461.217-.2676.366-.354.149-.0864.318-.1348.491-.1412.337-.0224.676.041.983.1843.294.1335.532.3659.671.6563.069.151.095.318.074.4826-.02.1647-.086.3205-.19.4502-.26.3767-.542.7382-.844 1.0824-.359.403-.764.8406-1.227 1.3012-.463.4606-.948.9097-1.458 1.3703-.509.4606-1.041.8867-1.573 1.2782-.94.7591-2.015 1.3336-3.17 1.6927-.991.2986-2.02.4499-3.055.4491a6.972 6.972 0 0 1-2.557-.4836c-.643-.2284-1.21-.6265-1.643-1.1516-.434-.533-.735-1.1602-.879-1.8309a6.71836 6.71836 0 0 1-.151-1.9691c.047-.6985.172-1.3897.37-2.0612.184-.6499.445-1.2761.776-1.8654Zm29.897 1.0018c.104-.1494.242-.2721.403-.3582.161-.0861.34-.133.523-.137.36-.026.72.0456 1.041.2073.301.1369.546.3727.694.6679.066.1488.086.3137.057.4736a.81546.81546 0 0 1-.219.4246c-.173.2073-.416.5182-.717.9212s-.659.8406-1.064 1.3012c-.405.4606-.845.9327-1.308 1.4279-.452.4867-.931.948-1.434 1.3818a9.89287 9.89287 0 0 1-2.534 1.7388c-.614.294-1.287.4399-1.967.4261-.523-.0174-1.027-.2033-1.435-.5297a4.82321 4.82321 0 0 1-1.007-1.1516l-1.839 1.1516a5.8933 5.8933 0 0 1-2.951.5872c-.842.0187-1.673-.201-2.395-.6333-.677-.4308-1.2-1.0637-1.492-1.8079-.331-.8855-.439-1.8386-.313-2.7751.141-1.2404.536-2.4393 1.157-3.5237a13.68531 13.68531 0 0 1 2.43-3.3048c.859-.8716 1.813-1.6442 2.846-2.3031.867-.562 1.804-1.0073 2.789-1.3242.745-.2566 1.525-.4001 2.314-.4261.393-.0058.784.0565 1.157.1843.325.1217.639.272.937.4491.332.18.642.3962.926.6448.225-.4296.605-.7586 1.064-.9212.441-.1864.922-.2615 1.4-.2188.392.0309.758.2126 1.018.5067.232.2879.197.6679-.081 1.1515-.277.4836-.636 1.2667-1.064 2.0958-.428.8291-.868 1.6812-1.331 2.5448-.463.8637-.891 1.6697-1.307 2.4297-.294.5755-.623 1.133-.984 1.6697-.208.3915-.289.6564-.231.8176.058.1612.197.2303.451.2188.3-.0372.588-.1395.845-.2994.355-.1972.678-.4455.96-.737.602-.6333 1.088-1.1515 1.458-1.5085.447-.4488.849-.9385 1.203-1.4624Zm-7.821 1.4855c.959-1.1599 1.674-2.4988 2.106-3.9382.15-.4999.212-1.0219.185-1.5431-.005-.1873-.049-.3717-.131-.5405s-.199-.3183-.344-.4382a1.37466 1.37466 0 0 0-.557-.2208 1.38822 1.38822 0 0 0-.6.0365c-.51.1185-.996.3251-1.434.6103-.573.3692-1.108.7934-1.597 1.2667-.577.5685-1.118 1.1723-1.62 1.8079-.497.6628-.943 1.3635-1.331 2.0957-.326.596-.585 1.2253-.775 1.877a4.12606 4.12606 0 0 0-.15 1.543c.01.1885.06.3726.146.5411.085.1685.206.3175.351.4377.148.1071.319.1811.498.2169.18.0357.366.0325.544-.0096.517-.101 1.011-.2962 1.458-.5758a9.63942 9.63942 0 0 0 1.631-1.2782c.59-.5854 1.132-1.2169 1.62-1.8884Z"/></g><defs><clipPath id="a"><path fill="#fff" d="M0 0h140v38H0z"/></clipPath></defs></svg>