<svg xmlns="http://www.w3.org/2000/svg" width="109" height="32" fill="none"><g clip-path="url(#a)"><path fill="#141414" d="M4.8877 31.0405c-1.81018 0-3.06563-.3685-3.78581-1.1152-.81463-1.0442-1.20076-2.3579-1.08026-3.6751V3.82109a3.65325 3.65325 0 0 1 .21731-1.5338A3.66375 3.66375 0 0 1 1.0727.97988c.70368-.65241 1.6378-1.001 2.59848-.9697h8.20422l1.0802 5.81818H6.98011c-.36981 0-.55474.19394-.55474.60122V24.6599c0 .4073.18493.6012.55474.6012h5.97549l-1.1192 5.8182-6.9487-.0388Zm16.204-3.8788-.5645 3.8788H14.25L19.8752.01018h6.6568l5.6057 31.03032h-6.2481l-.5644-3.8788h-4.2335Zm.6812-4.9261h2.9197L23.223 11.2684l-1.4501 10.9672ZM46.113.01018a3.54469 3.54469 0 0 1 1.5001.21062 3.5335 3.5335 0 0 1 1.2736.81726c.6418.76351.9719 1.7397.9245 2.73455V18.6284a6.75211 6.75211 0 0 1-.1946 1.6484c-.1259.4877-.3699.9372-.7104 1.3091-.3816.3951-.8519.6942-1.3723.8728a6.2422 6.2422 0 0 1-2.1508.32h-5.3235v8.2618H33.87V.01018h12.243Zm-6.0534 5.44V17.6393h3.0949c.253 0 .4184-.0485.4866-.1455a.81162.81162 0 0 0 .107-.4945V6.0417c0-.39758-.1849-.59152-.5547-.59152h-3.1338Zm24.6126-5.44 1.528 5.81818h-4.1459V31.0405h-6.3551V5.82836h-4.1654L53.1591.01018h11.5131Zm6.6665 27.15152-.5547 3.8788h-6.2772L70.093.01018h6.6666l5.6251 31.03032h-6.2383l-.5547-3.8788h-4.253Zm.7008-4.8485h2.9196l-1.4696-11.0448-1.45 11.0448ZM84.1268.01018h6.2286V31.0405h-6.2286V.01018Zm8.8173 0h5.9267l3.1822 12.45092V.01018h6.404V31.0405h-6.404l-3.3477-12.9649v12.9649h-5.7612V.01018Z"/></g><defs><clipPath id="a"><path fill="#fff" d="M0 0h109v32H0z"/></clipPath></defs></svg>