<svg xmlns="http://www.w3.org/2000/svg" width="148" height="38" fill="none"><g clip-path="url(#a)"><path fill="#141414" d="M34.0519 30.6138c-1.9611 2.2444-4.3756 4.0528-7.0861 5.307-2.7104 1.2542-5.6559 1.9262-8.6448 1.9723C7.31645 37.8931 0 30.875 0 19.3562 0 7.48125 8.97548.35625 15.7787.35625c1.5213-.07948 3.0399.2021 4.4303.82153 1.3904.61942 2.6128 1.55892 3.5665 2.74097l1.1935-2.88562h8.152V15.6394h-9.25c-.1552-3.3488-1.8142-6.49565-5.5023-6.49565s-6.1706 4.59565-6.1706 10.21245c0 5.1182 2.6496 9.7138 7.579 9.7138 4.3564 0 7.7819-4.5481 8.2474-5.0588l6.0274 6.6026ZM52.9577.98562v6.81626h-3.2225v7.79002h9.8587V7.80188h-3.0555V.98563h16.8648v6.81625h-2.9838V30.2575h2.9838v6.8162H56.5384v-6.8162h3.0555v-7.8019h-9.8587v7.8019h3.2225v6.8162h-16.829v-6.8162h2.8645V7.80188h-2.8645V.98563h16.829ZM75.48 18.7981C75.48 7.695 82.9636 0 93.7055 0c12.7235 0 18.6435 7.58813 18.6435 19.2019C112.349 30.8156 105.796 38 94.0636 38 83.2142 38 75.48 31.7537 75.48 18.8456v-.0475Zm23.871.3563c0-6.2463-1.7068-11.24565-5.7052-11.24565-3.1748 0-5.3471 4.48875-5.3471 10.88935 0 6.7688 2.3871 11.0438 5.7529 11.0438s5.3113-4.2275 5.3113-10.64l-.0119-.0475ZM148 30.6138c-1.961 2.2444-4.376 4.0528-7.086 5.307-2.711 1.2542-5.656 1.9262-8.645 1.9723-11.004 0-18.321-7.0181-18.321-18.5369 0-11.87495 8.976-18.99995 15.779-18.99995 1.522-.07948 3.04.2021 4.43.82153 1.391.61942 2.613 1.55892 3.567 2.74097l1.193-2.88562h8.152V15.6394h-9.298c-.155-3.3488-1.814-6.49565-5.502-6.49565-3.688 0-6.171 4.59565-6.171 10.21245 0 5.1182 2.65 9.7138 7.579 9.7138 4.357 0 7.782-4.5481 8.248-5.0588L148 30.6138Z"/></g><defs><clipPath id="a"><path fill="#fff" d="M0 0h148v38H0z"/></clipPath></defs></svg>