<svg xmlns="http://www.w3.org/2000/svg" width="60" height="68" fill="none"><g clip-path="url(#a)"><path fill="#A68F4B" d="M30.0011 42.5c4.1652-.0072 8.1844-1.5228 11.302-4.2621 3.1175-2.7392 5.1186-6.5134 5.6271-10.6129H13.0719c.5083 4.0996 2.5094 7.8739 5.627 10.6132 3.1175 2.7393 7.1368 4.2549 11.3022 4.2618Zm-18.215-19.125H48.216c.2836-.0019.555-.1145.7555-.3133.2005-.1989.314-.468.316-.7492v-4.25c-.002-.2812-.1155-.5503-.316-.7491-.2005-.1989-.4719-.3114-.7555-.3134h-1.0715c.0014-2.924-.8663-5.7836-2.4947-8.2214-1.6284-2.43774-3.9453-4.3455-6.6609-5.48484l-3.702 7.33124V2.12501c.0009-.2793-.054-.556-.1614-.8142-.1073-.25819-.2652-.49279-.4643-.69028a2.13904 2.13904 0 0 0-.6961-.46048 2.15229 2.15229 0 0 0-.8211-.16004h-4.2859a2.15179 2.15179 0 0 0-.821.16004c-.2604.1065-.497.26299-.6961.46048a2.11714 2.11714 0 0 0-.4644.69028 2.10396 2.10396 0 0 0-.1614.8142V10.625l-3.6966-7.33868c-2.716 1.14156-5.033 3.05073-6.6621 5.48943C13.7274 11.2145 12.8583 14.0748 12.8576 17h-1.0715c-.2835.002-.5549.1145-.7554.3134-.2006.1988-.3141.4679-.316.7491v4.131c-.0112.1481.0079.2969.0562.4374.0484.1405.1249.2699.225.3803.1002.1104.2218.1995.3576.2621.1358.0625.283.0971.4326.1017ZM42.1515 46.75H17.8539c-4.7354.0011-9.27642 1.8672-12.62451 5.1879C1.8813 55.2586.00029 59.7619 0 64.4576c0 .9393.37622 1.8402 1.04591 2.5045.6697.6643 1.57805 1.0376 2.52529 1.0379h52.8587c.9474 0 1.856-.3732 2.5259-1.0375.67-.6644 1.0463-1.5654 1.0463-2.5049.001-2.3251-.46-4.6276-1.3566-6.7761-.8967-2.1484-2.2114-4.1006-3.8691-5.745-1.6577-1.6444-3.6259-2.9488-5.7921-3.8387-2.1662-.89-4.488-1.3479-6.8328-1.3478Z"/></g><defs><clipPath id="a"><path fill="#fff" d="M0 0h60v68H0z"/></clipPath></defs></svg>