<svg xmlns="http://www.w3.org/2000/svg" width="142" height="38" fill="none"><g clip-path="url(#a)"><path fill="#141414" d="M37.8524 4.83083c.3341.36813.4296.65313.2983.86688-.1312.21375-.4176.19-.8472 0a3.2334 3.2334 0 0 0-1.3365-.36813c-.4076.00781-.8034-.13619-1.1097-.40375-.8644-.85617-1.9015-1.51997-3.0429-1.9475a12.5686 12.5686 0 0 0-3.6872-.8075 15.65823 15.65823 0 0 0-3.7946.17813 13.71108 13.71108 0 0 0-3.377.9975 18.30592 18.30592 0 0 0-3.5798 2.19687 37.44895 37.44895 0 0 0-3.9617 3.40813A44.58992 44.58992 0 0 0 9.54785 13.179a41.06978 41.06978 0 0 0-3.29344 4.8212 28.9712 28.9712 0 0 0-2.38656 4.9875c-.56368 1.5647-.87774 3.2075-.93075 4.8688-.02461.4015.08904.7994.32218 1.1281.21897.2754.50711.4884.8353.6175a3.91558 3.91558 0 0 0 1.12168.2256c.36171.0184.72416.0184 1.08588 0a15.03055 15.03055 0 0 0 3.57983-.8193 28.54354 28.54354 0 0 0 3.52023-1.5082c1.1614-.5937 2.2592-1.2231 3.2934-1.8881 1.0501-.6531 2.0047-1.2944 2.8639-1.9119.8591-.6175 1.6228-1.1875 2.2791-1.6506.6563-.4631 1.1337-.8312 1.4678-1.045.4984-.3609 1.0554-.634 1.6467-.8075.4246-.0532.8321-.1991 1.1933-.4275l1.5274-.9737c.358-.2019.5727-.2613.6324-.1782.0597.0832 0 .2732-.3102.5463-1.2769 1.3537-2.6133 2.6481-4.0095 3.8594-1.3961 1.2112-2.8161 2.375-4.26 3.5625a34.03692 34.03692 0 0 1-2.7326 1.9237 35.3793 35.3793 0 0 1-3.365 1.9238 30.7439 30.7439 0 0 1-3.5799 1.4962 10.53289 10.53289 0 0 1-3.37694.6056 7.51336 7.51336 0 0 1-3.09059-.5462c-.80784-.3389-1.51754-.8738-2.06437-1.5556-.54147-.6633-.9469-1.4259-1.19328-2.2444a9.2557 9.2557 0 0 1-.32219-2.6006 15.92689 15.92689 0 0 1 1.02622-5.13c.66831-1.8586 1.52388-3.6449 2.55362-5.3319a38.41421 38.41421 0 0 1 3.69916-5.0944 41.36251 41.36251 0 0 1 4.40317-4.40564 30.755 30.755 0 0 1 4.5584-3.24188c1.3454-.83249 2.8098-1.4571 4.3435-1.8525a25.65322 25.65322 0 0 1 4.4748-.5225c3.1186-.09984 6.2126.5821 8.9973 1.98313 1.4194.72194 2.703 1.68204 3.7946 2.83812ZM24.3207 22.7027a6.72008 6.72008 0 0 1-.7518.5819c-.1074 0-.1551 0-.1432-.0594.0437-.1618.1079-.3174.1909-.4631.0933-.1653.177-.3358.2506-.5106a8.2926 8.2926 0 0 0 .4893-1.6981c.0396-.438.2146-.8529.5011-1.1875l.8711-1.0213c.3938-.4631.8592-.9737 1.4081-1.52a23.31357 23.31357 0 0 1 1.8376-1.6269 12.69332 12.69332 0 0 1 2.1121-1.3537c.1455-.0768.3055-.1228.4698-.1351.1644-.0123.3294.0095.4849.0638.3442.0999.6676.2608.9546.475.2605.1935.4762.4406.6324.7244a.615.615 0 0 1 0 .6769 21.9418 21.9418 0 0 1-1.3364 2.1731c-.5967.8313-1.1933 1.71-1.778 2.6481-.5847.9382-1.1217 1.8882-1.611 2.85-.4374.8476-.77 1.7447-.9904 2.6719a13.12198 13.12198 0 0 0 2.315-1.6744c.8114-.7243 1.6109-1.52 2.3865-2.375.7757-.855 1.5632-1.7337 2.3866-2.6243l2.1121-2.47a.67947.67947 0 0 1 .349-.2641.68327.68327 0 0 1 .4386.0028c.3295.0929.6295.2688.8711.5106a2.458 2.458 0 0 1 .5608.9263c.0656.1497.0996.3115.0996.475 0 .1634-.034.3251-.0996.475a21.17146 21.17146 0 0 0-1.6825 4.2512 27.1604 27.1604 0 0 0 2.9235-1.9712c.9427-.7244 1.6825-1.2825 2.2314-1.6744.1661-.1142.3467-.206.537-.2731l.5966-.1781c.2485-.0747.4917-.1659.7279-.2732.2784-.1187.6126-.285 1.0024-.4987.5131-.2731.7876-.3563.8114-.2731.0239.0831-.1312.3206-.5012.6768-.6682.665-1.3722 1.3775-2.1359 2.1257-.7637.7481-1.5274 1.4843-2.315 2.1968-.7875.7125-1.5632 1.3775-2.3865 1.995a13.13137 13.13137 0 0 1-2.1479 1.4607.85263.85263 0 0 1-.3559.1178.8508.8508 0 0 1-.372-.0466c-.28-.0765-.5458-.1966-.7876-.3562-.2499-.1567-.4684-.3579-.6444-.5938-.1523-.185-.2403-.4142-.2506-.6531a6.30814 6.30814 0 0 1 .0239-1.4488c-.7876.8194-1.6109 1.5913-2.4701 2.375a22.33731 22.33731 0 0 1-2.8877 2.0663c-.3339.1592-.7063.221-1.074.1781a5.99608 5.99608 0 0 1-1.408-.2731 3.92255 3.92255 0 0 1-1.1933-.6531 1.41475 1.41475 0 0 1-.3847-.4998 1.40587 1.40587 0 0 1-.1284-.6165 4.111 4.111 0 0 1 .2029-1.5319c.1795-.5771.3908-1.144.6324-1.6981.2625-.5937.5489-1.1875.8711-1.7456l.883-1.6269c-.5728.5463-1.1336 1.0806-1.6825 1.6269-.5489.5462-1.1336 1.0925-1.6467 1.5437Zm23.0779-4.5718c-.7517.8787-1.4558 1.6387-2.0524 2.3037-.3805.4842-.8948.8473-1.4797 1.045a6.00433 6.00433 0 0 1-.7517 0c-.2795.0157-.5505.1014-.7876.2494a4.51551 4.51551 0 0 0-1.0023.6531c-.2881.2439-.5909.47-.9069.6769-.2148.1425-.2506.0831-.1194-.1544.1313-.2375.6206-.8787 1.432-1.9 1.3126-1.6309 2.5775-3.2142 3.7946-4.75a51.69204 51.69204 0 0 0 3.1622-4.4769.5845.5845 0 0 1 .2846-.199c.113-.036.2342-.037.3478-.0029.2804.0628.5499.1668.7995.3088.2958.139.5599.337.7757.5819.2147.2494.3102.4512.2744.6294-.1551.4868-.2864.9618-.4057 1.425-.1193.4631-.2267.95-.3222 1.425.9199-.6362 1.9798-1.0434 3.0906-1.1875.5878-.057 1.1798.0542 1.7064.3206a5.9653 5.9653 0 0 1 1.5035 1.0212c.41.3721.7601.8046 1.0382 1.2825.2243.334.3446.7264.346 1.1282-.0483.9651-.3988 1.8911-1.0023 2.6481-.6127.7734-1.3507 1.4396-2.1837 1.9712.9653-.3099 1.9-.7074 2.7922-1.1875.7518-.4275 1.3842-.8075 1.9093-1.1875.525-.38.9785-.6531 1.3484-.9025a2.55938 2.55938 0 0 1 1.0859-.475 2.4013 2.4013 0 0 1 .4534 0 .94677.94677 0 0 0 .3819-.095c.1723-.0812.3328-.185.4773-.3087l.7756-.6413c.2148-.2018.346-.2731.4057-.2018.0597.0712.0597.1425 0 .2018a18.08807 18.08807 0 0 1-2.3865 3.0282 21.65127 21.65127 0 0 1-3.1145 2.6956 20.85593 20.85593 0 0 1-3.5202 2.0187c-1.1617.5173-2.398.8499-3.6633.9857a2.2565 2.2565 0 0 1-.8234-.0832 10.43138 10.43138 0 0 1-1.1933-.3681 5.21429 5.21429 0 0 1-1.062-.5344c-.2663-.1596-.4911-.3792-.6563-.6412l-.1909.4987c-.358.9975-.7279 2.0188-1.0859 3.0519-.358 1.0331-.7637 2.0781-1.1933 3.1231a30.42727 30.42727 0 0 1-1.4558 3.0044 15.61376 15.61376 0 0 1-1.8376 2.6719.70638.70638 0 0 1-.3018.186.7079.7079 0 0 1-.3545.0159c-.2945-.0619-.5594-.2209-.7518-.4513-.261-.2966-.4562-.6446-.5728-1.0212a3.54759 3.54759 0 0 1-.1074-1.4488c.3222-2.4243 1.01-4.7863 2.0405-7.0062a80.2441 80.2441 0 0 1 3.6873-7.1844c.1432-.2731.3102-.5463.4773-.8194a8.6464 8.6464 0 0 1 .5131-.7719l.3818-1.1518Zm8.0427-1.1282c-1.2764.0344-2.5023.5039-3.4724 1.33-.9865.8333-1.8502 1.8008-2.5655 2.8738-.1512.6016-.2944 1.1835-.4296 1.7456-.1432.5581-.2983 1.1875-.4773 1.7338l.2625-.1307a11.5575 11.5575 0 0 0 2.0763-1.1875 16.09512 16.09512 0 0 0 2.1956-1.7693c.6896-.6429 1.2806-1.3831 1.7541-2.1969.4431-.7214.6708-1.5534.6563-2.3988Zm8.9973 7.8257c1.1018-.0387 2.19-.2553 3.2219-.6413 1.065-.3925 2.0916-.8813 3.0667-1.4606a25.77736 25.77736 0 0 0 2.8162-1.9475c.8949-.7125 1.7063-1.3775 2.3865-2.0188a.72909.72909 0 0 1 .2502-.1711.73265.73265 0 0 1 .2987-.0545c.1432 0 .1193.2138-.0954.5463a6.58098 6.58098 0 0 0-.7518 1.805c-.0492.3941-.1969.7697-.4296 1.0925-.3074.369-.634.7219-.9785 1.0568-.4386.4306-.9093.8276-1.408 1.1875-.5251.4038-1.0859.7957-1.6587 1.1875a8.73187 8.73187 0 0 1-1.7303.8669c-.5275.221-1.0749.392-1.6347.5106a9.3791 9.3791 0 0 1-1.8138.2494 3.97815 3.97815 0 0 1-1.3842-.3087 6.1708 6.1708 0 0 1-1.5036-.8669 7.6876 7.6876 0 0 1-1.1932-1.1875c-.3055-.3289-.5013-.7436-.5609-1.1875a11.98324 11.98324 0 0 1 .2745-4.2038c.3161-1.251.8103-2.4506 1.4677-3.5625.6218-1.0575 1.4303-1.995 2.3866-2.7668.9367-.7648 2.0036-1.356 3.1502-1.7457.4148-.1351.862-.1351 1.2768 0 .4881.1565.9535.3761 1.3842.6531.4057.2633.7715.5832 1.0859.9501.2495.2669.4009.6101.4296.9737a2.61667 2.61667 0 0 1-.3103 1.1875c-.236.4798-.5031.944-.7995 1.3894-.3102.475-.6682.9737-1.0381 1.4844l-1.074 1.4487c-.3341.4275-.5727.57-.7279.4513-.1551-.1188-.1312-.4394 0-.95.1194-.3325.2029-.5938.2506-.7838.0432-.171.0673-.3463.0716-.5225a1.18432 1.18432 0 0 0-.0716-.4275 3.92829 3.92829 0 0 1-.1193-.475c-.022-.232.0024-.4661.0716-.6887.0847-.2589.1844-.5127.2983-.76.1193-.2732.2387-.5582.358-.8669.1235-.3066.2155-.625.2745-.95-.9184.372-1.7359.9537-2.3866 1.6981a12.39525 12.39525 0 0 0-1.957 2.8856 13.30361 13.30361 0 0 0-1.1933 3.4794 8.08557 8.08557 0 0 0 0 3.4438Zm13.3648-8.3125a22.70964 22.70964 0 0 1 2.47-2.1019c.5856-.4378 1.2499-.7602 1.957-.95.5519-.1438 1.1364-.0979 1.6587.1306.6022.2881 1.1416.6916 1.587 1.1875l.6921-1.0331c.0857-.1081.2024-.1874.3345-.2278a.68427.68427 0 0 1 .4054.0022c.3607.0564.7036.1946 1.0023.4037.2974.1901.5465.4462.7279.7481.0841.1067.13.2384.13.3741 0 .1356-.0459.2673-.13.3741-.3008.4159-.572.8525-.8114 1.3062-.3938.6888-.8114 1.4844-1.1933 2.375-.3818.8906-.8353 1.7694-1.1933 2.6481a10.74306 10.74306 0 0 0-.7159 2.1257.42547.42547 0 0 0 0 .2256v.2731c.6196-.3542 1.2138-.751 1.7779-1.1875.6564-.475 1.3126-.9619 1.9451-1.4606l1.8018-1.425 1.2888-1.045c.1979-.1531.4144-.2807.6444-.38.1748-.0777.3541-.1451.5369-.2019l.5967-.2137c.2573-.0963.5019-.224.7279-.38.179-.1188.3102-.1544.3818-.1069.0716.0475 0 .1662-.1074.38-1.1933 1.5675-2.3865 3.0875-3.7707 4.5719-.37.3918-.7757.8431-1.1933 1.3537-.4545.5059-.9494.9745-1.4797 1.4013a6.59869 6.59869 0 0 1-1.6586.9737c-.5672.2252-1.1946.2502-1.778.0713-.8358-.1174-1.5975-.5408-2.136-1.1875-.3317-.5938-.4133-1.2942-.2267-1.9475a29.4054 29.4054 0 0 1-1.8138 2.375 6.97188 6.97188 0 0 1-1.766 1.5793c-2.0644 1.1875-3.5799.7957-4.6419-1.3062a3.98489 3.98489 0 0 1-.358-1.6506 6.18329 6.18329 0 0 1 .3819-2.2919c.3239-.947.7606-1.852 1.3006-2.6956.7489-1.1328 1.6302-2.1732 2.6253-3.0994v.0119Zm.6324 7.4218c1.1773-1.2746 2.307-2.6165 3.3889-4.0256 1.074-1.425 2.1002-2.85 3.0667-4.2987-.5138-.0329-1.0244.1003-1.4558.38-.5965.3548-1.1668.7517-1.7064 1.1875-.5608.4393-1.0739.8668-1.5393 1.2943a8.5315 8.5315 0 0 0-.9307.9025c-.374.4275-.7717.9619-1.1933 1.6032-.4654.6531-.9069 1.3181-1.3126 2.0187-.3807.6206-.708 1.2721-.9785 1.9475a1.83292 1.83292 0 0 0-.179 1.3538c.179.2731.4654.2018.883-.2019l1.957-2.1613Zm34.1282-4.4768c.159-.087.327-.1586.501-.2138l.477-.1306.585-.2019c.226-.095.513-.2256.847-.4037.334-.1782.62-.3325.68-.2494.06.0831 0 .2731-.37.6056-.608.7481-1.324 1.5675-2.172 2.4463-.847.8787-1.73 1.6743-2.637 2.4462-.848.7244-1.746 1.3909-2.685 1.995-.695.4813-1.483.813-2.315.9738-.968.1503-1.959.0311-2.863-.3444-.766-.2563-1.422-.7626-1.862-1.4369-.314-.5651-.489-1.1956-.513-1.8406-.06-.7074-.06-1.4184 0-2.1256.032-.2888.147-.5624.331-.7878.184-.2254.429-.3931.707-.4829.462-.21.912-.4438 1.349-.7006.511-.3067.997-.6522 1.455-1.0331.458-.4089.877-.858 1.253-1.3419.39-.4167.687-.9103.871-1.4487-.981.3036-1.893.7958-2.685 1.4487-.821.6274-1.594 1.314-2.314 2.0544a31.45563 31.45563 0 0 0-2.1126 2.375c-.7159.8906-1.3722 1.7337-1.9808 2.5531-.6086.8194-1.1217 1.5319-1.5393 2.1731-.4177.6413-.7041 1.0332-.8234 1.1875a1.35572 1.35572 0 0 1-.3934.4281 1.3637 1.3637 0 0 1-.5374.2251 2.61435 2.61435 0 0 1-1.1193-.0534 2.60532 2.60532 0 0 1-.9928-.5166c-.1066-.0726-.1835-.181-.2163-.3053a.53147.53147 0 0 1 .0373-.3716l4.272-7.6831a30.5983 30.5983 0 0 1-2.5894 2.2087 26.54308 26.54308 0 0 1-2.8639 1.9c-.3699.2375-.7279.4631-1.0978.6531-.3699.19-.6444.3444-.8353.4394-.1909.095-.2983.095-.2983 0s.167-.2731.5011-.6056c.5999-.5827 1.1544-1.21 1.6587-1.8763.3311-.4361.6001-.9156.7995-1.425.2221-.5856.607-1.0963 1.1098-1.4725l2.3865-2.1493c.9069-.8432 1.8854-1.8169 2.9355-2.9094a29.00715 29.00715 0 0 0 2.9716-3.77629c.572-1.1875 1.193-2.375 1.658-3.64563.466-1.27062.991-2.47 1.48-3.6575.083-.21375.262-.285.537-.22562.32.08083.612.24475.847.475.3.26848.558.58079.764.92625.243.34563.349.76858.298 1.1875-.03.4945-.131.98226-.298 1.44875-.156.47473-.351.93552-.585 1.3775-.197.41668-.433.81422-.704 1.1875-.239.32062-.441.57-.597.74812-.262.60562-.501 1.18752-.704 1.56752-.202.38-.393.8431-.608 1.1875-.215.3444-.43.8075-.633 1.1875-.202.38-.477.9263-.775 1.4963.732-.4534 1.498-.8504 2.291-1.1875a6.23123 6.23123 0 0 1 2.613-.4038c.328.0175.646.1111.931.2731.382.1817.736.4178 1.05.7007.314.2813.576.6149.776.9856.19.3396.245.7379.155 1.1162-.182.6247-.459 1.2176-.824 1.7575-.396.6156-.86 1.1852-1.384 1.6982-.537.4986-1.125.9404-1.754 1.3181-.584.3954-1.208.7297-1.861.9975-.065.4737.045.9549.31 1.3537.274.4513.489.8194.644 1.0925.797-.1688 1.559-.4698 2.255-.8906.836-.4869 1.647-1.0331 2.459-1.6031.811-.57 1.527-1.1163 2.195-1.6269.482-.4078 1.002-.7696 1.552-1.0806v.0119Zm7.588-.9975c-.362.5208-.762 1.0168-1.193 1.4843-.491.5101-1.013.9898-1.563 1.4369-.518.4365-1.068.8335-1.646 1.1875-.462.3091-.97.5456-1.504.7006 0 .3337.024.6671.072.9975.031.2931.133.5744.298.8194a.9601.9601 0 0 0 .394.4147c.17.0955.366.1372.561.1197.417-.0392.823-.1603 1.193-.3563.766-.3889 1.5-.8375 2.195-1.3418.766-.5389 1.504-1.1176 2.208-1.7338.727-.6412 1.432-1.2944 2.112-1.9712.68-.6769 1.312-1.3182 1.885-1.9238.239-.2375.418-.3206.525-.2494.107.0713.096.2257 0 .4394-.286.6305-.538 1.2767-.752 1.9356-.167.5463-.31.9975-.429 1.3657-.124.3601-.301.7002-.525 1.0093-.33.4987-.692.9747-1.086 1.425-.472.5495-.982 1.0653-1.528 1.5438-.569.5072-1.202.9384-1.885 1.2825a6.2947 6.2947 0 0 1-2.171.6531c-.809.0964-1.63-.0097-2.387-.3087-1-.3258-1.848-1.0006-2.386-1.9-.476-.8422-.735-1.7889-.752-2.755-.028-1.0397.126-2.0763.453-3.0638.299-.9804.699-1.9275 1.194-2.8262.253-.4561.54-.8928.859-1.3063.368-.4914.766-.9594 1.193-1.4012.402-.4329.841-.8302 1.313-1.1875.379-.2949.826-.4908 1.3-.57.554-.0059 1.1.129 1.587.3918.512.2206.987.5168 1.408.8788.314.3178.493.7425.501 1.1875.032.4334-.037.8684-.203 1.2706-.176.4126-.388.8098-.632 1.1875l-.609 1.1638Zm-4.999 1.5675c.735-.7113 1.409-1.4819 2.017-2.3038.628-.8347 1.142-1.7492 1.527-2.7194-.317.2168-.602.4766-.847.7719-.286.3301-.55.6793-.788 1.045-.25.3563-.477.7125-.68 1.0569-.203.3444-.382.6294-.501.8431l-.728 1.3063Zm25.213-1.1875c.49-.3563.764-.5107.824-.4275.059.0831-.108.3325-.501.7837-.728.8788-1.48 1.7575-2.268 2.6244-.787.8669-1.575 1.6981-2.386 2.47-.753.7317-1.55 1.4178-2.387 2.0544-.726.5606-1.531 1.0163-2.386 1.3537-.239.6359-.663 1.1868-1.217 1.5822-.555.3955-1.215.6178-1.898.6384a5.02156 5.02156 0 0 1-2.028-.3562c-.696-.2649-1.33-.669-1.862-1.1875a3.95925 3.95925 0 0 1-.453-.5938c-.149-.2346-.263-.491-.334-.76-.082-.2487-.105-.5125-.072-.7718.021-.1288.068-.2519.137-.3621.069-.1103.161-.2052.269-.2792.162-.1308.365-.2022.572-.2019h.812c.286 0 .561 0 .823.095l.609.1069h1.193c.372.0027.744-.025 1.11-.0831.095-.453.144-.9147.143-1.3775v-3.7406c0-.8313-.119-1.6625-.203-2.5057a44.15583 44.15583 0 0 1-3.472 3.3488c-1.265 1.0806-2.387 2.0187-3.389 2.8025-.43.3325-.621.38-.597.1544.072-.3062.215-.591.418-.8313.209-.2742.389-.5687.537-.8787.15-.305.281-.6181.394-.9382l.286-.8075c.073-.2113.2-.3997.37-.5462.394-.3919 1.05-1.1875 1.981-2.2088 1.114-1.3775 2.109-2.8475 2.971-4.3937.056-.1012.143-.1822.248-.2312a.54983.54983 0 0 1 .337-.0419c.292.0399.574.141.823.2968.275.1675.526.3667.752.5938.179.1453.311.3391.382.5581.274 1.6031.525 3.2538.751 4.9756.225 1.681.264 3.3811.12 5.0707.642-.3249 1.242-.7236 1.79-1.1875.62-.4988 1.193-1.0094 1.814-1.52.62-.5107 1.193-.9975 1.706-1.4488.459-.392.964-.727 1.503-.9975.335-.1425.633-.2612.907-.3562.315-.1048.61-.2614.871-.4632v-.0118Z"/></g><defs><clipPath id="a"><path fill="#fff" d="M0 0h142v38H0z"/></clipPath></defs></svg>