<svg xmlns="http://www.w3.org/2000/svg" width="51" height="68" fill="none"><g clip-path="url(#a)"><path fill="#A68F4B" d="M42.5 0h-34C6.24566 0 4.08365.89553 2.48959 2.48959.89553 4.08365 0 6.24566 0 8.5v51c0 2.2543.89553 4.4163 2.48959 6.0104C4.08365 67.1045 6.24566 68 8.5 68h34c2.2543 0 4.4163-.8955 6.0104-2.4896C50.1045 63.9163 51 61.7543 51 59.5v-51c0-2.25434-.8955-4.41635-2.4896-6.01041C46.9163.89553 44.7543 0 42.5 0ZM27.625 46.75h-17A2.12503 2.12503 0 0 1 8.5 44.625a2.12503 2.12503 0 0 1 2.125-2.125h17a2.125 2.125 0 0 1 0 4.25ZM40.375 34h-29.75A2.12503 2.12503 0 0 1 8.5 31.875a2.12503 2.12503 0 0 1 2.125-2.125h29.75a2.125 2.125 0 0 1 0 4.25Zm0-12.75h-29.75A2.12503 2.12503 0 0 1 8.5 19.125 2.12503 2.12503 0 0 1 10.625 17h29.75a2.125 2.125 0 0 1 0 4.25Z"/></g><defs><clipPath id="a"><path fill="#fff" d="M0 0h51v68H0z"/></clipPath></defs></svg>