<svg xmlns="http://www.w3.org/2000/svg" width="51" height="68" fill="none"><g clip-path="url(#a)"><path fill="#A68F4B" d="M31.9662 29.75h14.823a4.01006 4.01006 0 0 1 2.3846.7408 4.00489 4.00489 0 0 1 1.4827 2.0079c.3492.7943.4344 1.6795.243 2.5257a4.05561 4.05561 0 0 1-1.3063 2.1758l-34.027 29.75c-.7253.6369-1.646 1.0081-2.6105 1.0528a4.25663 4.25663 0 0 1-2.6968-.807c-.78118-.5671-1.34602-1.3829-1.60166-2.3133a4.24674 4.24674 0 0 1 .19507-2.8061L19.0732 38.25H4.13426a4.25513 4.25513 0 0 1-2.37751-.8056 4.25035 4.25035 0 0 1-1.50873-2.0049 4.24685 4.24685 0 0 1-.11434-2.5059 4.24965 4.24965 0 0 1 1.3199-2.1339L35.4805 1.04974C36.206.41447 37.1261.04448 38.0898.00052a4.25601 4.25601 0 0 1 2.6941.80727c.7804.56657 1.3449 1.3814 1.6008 2.31077a4.2463 4.2463 0 0 1-.1924 2.80381L31.9662 29.75Z"/></g><defs><clipPath id="a"><path fill="#fff" d="M0 0h51v68H0z"/></clipPath></defs></svg>