<svg xmlns="http://www.w3.org/2000/svg" width="68" height="68" fill="none"><g clip-path="url(#a)"><path fill="#A68F4B" d="M0 4.25a4.24998 4.24998 0 0 1 1.2448-3.0052A4.24998 4.24998 0 0 1 4.25 0h17c1.1272 0 2.2082.44777 3.0052 1.2448A4.25012 4.25012 0 0 1 25.5 4.25v51c0 3.3815-1.3433 6.6245-3.7344 9.0156C19.3745 66.6567 16.1315 68 12.75 68c-3.38151 0-6.62452-1.3433-9.01561-3.7344S0 58.6315 0 55.25v-51ZM17 8.5H8.5V17H17V8.5ZM8.5 34H17v-8.5H8.5V34Zm4.25 24.4375c.6304 0 1.2467-.1869 1.7709-.5372a3.18765 3.18765 0 0 0 1.174-1.4305 3.1885 3.1885 0 0 0 .1814-1.8416 3.18739 3.18739 0 0 0-.8724-1.6321 3.18748 3.18748 0 0 0-1.632-.8724 3.18876 3.18876 0 0 0-1.8417.1814A3.18758 3.18758 0 0 0 9.5625 55.25c-.00098.4189.0808.8338.24064 1.221.15984.3871.39456.7389.69076 1.0351.2962.2962.648.5309 1.0351.6908.3872.1598.8021.2416 1.221.2406Zm17-3.1875V20.4531l10.0141-10.0098a4.25638 4.25638 0 0 1 6.0169 0L57.8 22.4591a4.25672 4.25672 0 0 1 1.2449 3.008c0 1.128-.4478 2.2098-1.2449 3.0079L29.6969 56.5643c.0393-.425.0531-.8765.0531-1.3143ZM49.7781 42.5H63.75A4.25002 4.25002 0 0 1 68 46.75v17A4.25002 4.25002 0 0 1 63.75 68H24.2781l25.5-25.5Z"/></g><defs><clipPath id="a"><path fill="#fff" d="M0 0h68v68H0z"/></clipPath></defs></svg>