<svg xmlns="http://www.w3.org/2000/svg" width="131" height="34" fill="none"><g fill="#fff" clip-path="url(#a)"><path d="M31.2853 30.3572h-5.8131l-.7945 3.6429h-6.5045l6.2346-24.28574h8.039l6.2346 24.28574h-6.641l-.7551-3.6429Zm-1.0219-4.678-1.8497-8.7398-1.9287 8.7398h3.7784ZM57.3125 9.71436V34.0001H51.651l-5.4038-12.75v12.75h-6.0466V9.71436h5.6676L51.2719 22.689V9.71436h6.0406ZM74.9642 14.444h-4.6851v19.5561h-6.5985V14.444h-4.6639V9.71436h15.9475V14.444ZM88.2643 30.3572h-5.8192l-.7945 3.6429h-6.4985l6.2347-24.28574h8.048l6.2346 24.28574h-6.6501l-.755-3.6429Zm-1.0189-4.6902-1.8528-8.7276-1.9256 8.7398 3.7784-.0122ZM106.856 18.0352v-3.1389c0-.5677-.303-.8318-.946-.8318h-1.359c-.643 0-.946.2641-.946.8318v13.9218c0 .5677.303.8318.946.8318h1.359c.643 0 .946-.2641.946-.8318v-4.0466h-1.889v-4.2014h8.491v8.7398c0 2.8353-1.517 4.6902-5.553 4.6902h-5.367c-4.0424 0-5.5555-1.8549-5.5555-4.6902V14.4045c0-2.8353 1.5162-4.69014 5.5555-4.69014h5.367c4.042 0 5.553 1.85484 5.553 4.69014v3.6429l-6.602-.0122ZM131 29.2704v4.7297h-14.889V9.71436h14.555V14.444h-7.941v4.9543h6.838v4.7296h-6.838v5.1425H131Z"/><path d="M12.7361 0 8.0844 25.9432l-1.4131-8.3361H0L4.2666 34h7.672l6.8623-27.92857H131L12.7361 0Z"/></g><defs><clipPath id="a"><path fill="#fff" d="M0 0h131v34H0z"/></clipPath></defs></svg>