<svg xmlns="http://www.w3.org/2000/svg" width="68" height="68" fill="none"><g clip-path="url(#a)"><path fill="#A68F4B" d="M65.5074 5.60798C67.1034 7.20472 68 9.36994 68 11.6276c0 2.2576-.8966 4.4228-2.4926 6.0196l-7.4949 7.4991L42.8517 9.99185l7.4991-7.49912C51.9488.89656 54.115 0 56.3736 0s4.4248.89656 6.0228 2.49273l3.111 3.11525ZM5.96912 46.8861 39.8437 12.9987 55.0035 28.151 21.1097 62.0288a7.54362 7.54362 0 0 1-3.2172 1.9009L4.06725 67.879a3.01647 3.01647 0 0 1-1.7029-.0041A3.01602 3.01602 0 0 1 .935 66.9493a2.92536 2.92536 0 0 1-.8429-1.3918 2.92505 2.92505 0 0 1 .03115-1.6268l3.9525-13.8274a7.37138 7.37138 0 0 1 1.89337-3.2172ZM33.1596 13.6723 13.7477 33.0842 2.125 21.4498A6.3742 6.3742 0 0 1 .74163 19.381a6.3755 6.3755 0 0 1-.4858-2.4409c0-.8377.16508-1.6671.4858-2.4409A6.37462 6.37462 0 0 1 2.125 12.4303L12.5056 2.0486A6.37514 6.37514 0 0 1 19.4563.66523a6.37588 6.37588 0 0 1 2.0689 1.38337l2.6329 2.62756c-.0404.03825-.0935.07969-.1329.12325l-8.5127 8.51169c-.203.196-.3648.4305-.4762.6898-.1114.2592-.17.5381-.1725.8202-.0024.2822.0514.562.1582.8232.1068.2611.2646.4984.4642.6979.1995.1995.4367.3573.6979.4641.2611.1069.541.1607.8231.1582.2822-.0024.561-.0611.8203-.1724.2592-.1114.4937-.2733.6897-.4763L27.03 7.80947c.0404-.0425-.0266-.08818.1201-.13387l6.0095 5.9967ZM60.3224 40.849a1.0716 1.0716 0 0 0-.1328.12L51.68 49.4775a2.1248 2.1248 0 0 0-.5964 1.4948c.0048.5571.2283 1.0901.6223 1.4841.394.394.927.6175 1.4841.6223a2.1244 2.1244 0 0 0 1.4947-.5964l8.5096-8.5096c.0404-.1594-.0266-.0935.1201-.1328l2.6329 2.6329c1.1951 1.1955 1.8665 2.8167 1.8665 4.5071 0 1.6904-.6714 3.3116-1.8665 4.5071L55.5634 65.8708c-1.1955 1.1952-2.8167 1.8666-4.5071 1.8666-1.6904 0-3.3116-.6714-4.5071-1.8666L34.9148 54.2513l19.4119-19.4118 5.9957 6.0095Z"/></g><defs><clipPath id="a"><path fill="#fff" d="M0 0h68v68H0z"/></clipPath></defs></svg>