<svg xmlns="http://www.w3.org/2000/svg" width="68" height="68" fill="none"><g clip-path="url(#a)"><path fill="#A68F4B" d="M46.75 12.7499a12.65187 12.65187 0 0 1-1.1687 5.3391l7.0125 12.1125c-3.1848 3.4071-7.2471 5.8703-11.7407 7.1187L34 25.4999h-.119l-8.925 15.606A29.96025 29.96025 0 0 0 34 42.4999a29.43034 29.43034 0 0 0 12.9167-2.9543 29.4316 29.4316 0 0 0 10.3117-8.3209 4.28457 4.28457 0 0 1 2.882-1.5009 4.28538 4.28538 0 0 1 3.1065.9529 4.28486 4.28486 0 0 1 1.5447 2.8588 4.28526 4.28526 0 0 1-.9054 3.1207A38.34108 38.34108 0 0 1 50.557 47.2186 38.3408 38.3408 0 0 1 34 50.9999a38.1546 38.1546 0 0 1-13.3737-2.4044l-7.5246 12.9901a6.40046 6.40046 0 0 1-2.6658 2.5107l-7.35996 3.6784a2.12462 2.12462 0 0 1-1.04579.2225 2.12574 2.12574 0 0 1-1.02178-.3149 2.12478 2.12478 0 0 1-.73909-.7726A2.12523 2.12523 0 0 1 0 65.8749v-7.3567a6.44927 6.44927 0 0 1 .8585-3.2013l7.96875-13.7594a39.20956 39.20956 0 0 1-4.6835-4.9013 4.28729 4.28729 0 0 1-.91893-3.1285 4.28716 4.28716 0 0 1 7.55208-2.3041 19.9502 19.9502 0 0 0 2.4193 2.7891l9.2226-15.9237a12.74915 12.74915 0 0 1-1.1674-5.5247 12.7515 12.7515 0 0 1 1.3332-5.48698A12.75017 12.75017 0 0 1 31.2673.30265a12.7496 12.7496 0 0 1 5.6464.0411 12.74924 12.74924 0 0 1 5.075 2.47567 12.7503 12.7503 0 0 1 3.5082 4.42468 12.75166 12.75166 0 0 1 1.2531 5.5058ZM34 16.9999a4.2499 4.2499 0 0 0 2.3612-.7162 4.2503 4.2503 0 0 0 1.5653-1.9074 4.24955 4.24955 0 0 0 .2418-2.4555 4.2499 4.2499 0 0 0-3.3392-3.33921 4.24998 4.24998 0 0 0-2.4555.24185 4.24966 4.24966 0 0 0-1.9073 1.56536 4.24993 4.24993 0 0 0-.7163 2.3611c0 1.1272.4478 2.2082 1.2448 3.0052.797.7971 1.878 1.2448 3.0052 1.2448Zm15.4201 35.3154a41.30976 41.30976 0 0 0 11.9127-7.0263l5.8045 10.0279c.5654.9721.8631 2.0767.8627 3.2013v7.3567c.0004.363-.0923.72-.269 1.037-.1768.317-.4318.5834-.7408.7739A2.12388 2.12388 0 0 1 65.9661 68a2.12508 2.12508 0 0 1-1.0474-.2253l-7.3578-3.6795a6.48083 6.48083 0 0 1-2.67-2.5106l-5.4708-9.2693Z"/></g><defs><clipPath id="a"><path fill="#fff" d="M0 0h68v68H0z"/></clipPath></defs></svg>